
<svg width="359px" height="355px" viewBox="0 0 359 355" version="1.1" xmlns="http://www.w3.org/2000/svg" xmlns:xlink="http://www.w3.org/1999/xlink">
    <!-- Generator: Sketch 43.1 (39012) - http://www.bohemiancoding.com/sketch -->
    <desc>Created with Sketch.</desc>
    <defs></defs>
    <g id="Page-1" stroke="none" stroke-width="1" fill="none" fill-rule="evenodd">
        <ellipse id="Oval" stroke="#9115F2" cx="179.5" cy="170.5" rx="178.5" ry="169.5"></ellipse>
        <g id="chat-(1)" transform="translate(84.000000, 87.000000)" fill-rule="nonzero" fill="#9115F2">
            <path d="M174.534483,0.946615385 L16.4655172,0.946615385 C7.50168966,0.946615385 0,8.30630769 0,17.1004615 L0,123.715846 C0,132.51 7.50168966,139.869692 16.4655172,139.869692 L23.0517241,139.869692 L42.8103448,139.869692 L49.3965517,139.869692 L49.3965517,167.053385 L76.5416034,137.756769 L93.0038276,118.982769 C94.1893448,117.632308 96.2672931,117.477231 97.6503966,118.640308 C99.0269138,119.803385 99.1849828,121.845231 97.9994655,123.195692 L83.3813793,139.869692 L174.534483,139.869692 C183.49831,139.869692 191,132.51 191,123.715846 L191,17.1004615 C191,8.30630769 183.49831,0.946615385 174.534483,0.946615385 Z" id="Shape"></path>
        </g>
        <g id="chat-(1)" transform="translate(310.000000, 67.000000)" fill-rule="nonzero" fill="#F2E115">
            <path d="M43.862069,0.231019231 L4.13793103,0.231019231 C1.88524138,0.231019231 0,2.02713462 0,4.17332692 L0,30.1925577 C0,32.33875 1.88524138,34.1348654 4.13793103,34.1348654 L5.79310345,34.1348654 L10.7586207,34.1348654 L12.4137931,34.1348654 L12.4137931,40.7689808 L19.2355862,33.6192115 L23.3726897,29.0374615 C23.6706207,28.7078846 24.1928276,28.6700385 24.5404138,28.9538846 C24.8863448,29.2377308 24.926069,29.7360385 24.6281379,30.0656154 L20.9544828,34.1348654 L43.862069,34.1348654 C46.1147586,34.1348654 48,32.33875 48,30.1925577 L48,4.17332692 C48,2.02713462 46.1147586,0.231019231 43.862069,0.231019231 Z" id="Shape"></path>
        </g>
        <g id="chat-(1)" transform="translate(1.000000, 235.000000)" fill-rule="nonzero" fill="#15F299">
            <path d="M43.862069,0.231019231 L4.13793103,0.231019231 C1.88524138,0.231019231 0,2.02713462 0,4.17332692 L0,30.1925577 C0,32.33875 1.88524138,34.1348654 4.13793103,34.1348654 L5.79310345,34.1348654 L10.7586207,34.1348654 L12.4137931,34.1348654 L12.4137931,40.7689808 L19.2355862,33.6192115 L23.3726897,29.0374615 C23.6706207,28.7078846 24.1928276,28.6700385 24.5404138,28.9538846 C24.8863448,29.2377308 24.926069,29.7360385 24.6281379,30.0656154 L20.9544828,34.1348654 L43.862069,34.1348654 C46.1147586,34.1348654 48,32.33875 48,30.1925577 L48,4.17332692 C48,2.02713462 46.1147586,0.231019231 43.862069,0.231019231 Z" id="Shape"></path>
        </g>
        <g id="chat-(1)" transform="translate(196.000000, 314.000000)" fill-rule="nonzero" fill="#5456D7">
            <path d="M43.862069,0 L4.13793103,0 C1.88524138,0 0,1.79611538 0,3.94230769 L0,29.9615385 C0,32.1077308 1.88524138,33.9038462 4.13793103,33.9038462 L5.79310345,33.9038462 L10.7586207,33.9038462 L12.4137931,33.9038462 L12.4137931,40.5379615 L19.2355862,33.3881923 L23.3726897,28.8064423 C23.6706207,28.4768654 24.1928276,28.4390192 24.5404138,28.7228654 C24.8863448,29.0067115 24.926069,29.5050192 24.6281379,29.8345962 L20.9544828,33.9038462 L43.862069,33.9038462 C46.1147586,33.9038462 48,32.1077308 48,29.9615385 L48,3.94230769 C48,1.79611538 46.1147586,0 43.862069,0 Z" id="Shape"></path>
        </g>
        <g id="chat-(1)" transform="translate(60.000000, 1.000000)" fill-rule="nonzero" fill="#E1038B">
            <path d="M43.862069,0.231019231 L4.13793103,0.231019231 C1.88524138,0.231019231 0,2.02713462 0,4.17332692 L0,30.1925577 C0,32.33875 1.88524138,34.1348654 4.13793103,34.1348654 L5.79310345,34.1348654 L10.7586207,34.1348654 L12.4137931,34.1348654 L12.4137931,40.7689808 L19.2355862,33.6192115 L23.3726897,29.0374615 C23.6706207,28.7078846 24.1928276,28.6700385 24.5404138,28.9538846 C24.8863448,29.2377308 24.926069,29.7360385 24.6281379,30.0656154 L20.9544828,34.1348654 L43.862069,34.1348654 C46.1147586,34.1348654 48,32.33875 48,30.1925577 L48,4.17332692 C48,2.02713462 46.1147586,0.231019231 43.862069,0.231019231 Z" id="Shape"></path>
        </g>
    </g>
</svg>